<?xml version="1.0" standalone="no"?><!DOCTYPE svg PUBLIC "-//W3C//DTD SVG 1.1//EN" "http://www.w3.org/Graphics/SVG/1.1/DTD/svg11.dtd"><svg t="1737341247688" class="icon" viewBox="0 0 1024 1024" version="1.1" xmlns="http://www.w3.org/2000/svg" p-id="12777" xmlns:xlink="http://www.w3.org/1999/xlink" width="200" height="200"><path d="M409.6 153.60213333l-170.66666667 0 0 453.32906667c0 112.17066667-38.46826667 143.49013333-105.41226666 143.49013333-31.37066667 0-59.6224-5.37813333-81.6-12.9344L34.13333333 870.1952c31.36 10.79893333 79.48586667 17.27146667 117.13493334 17.27146667C304.97066667 887.46666667 409.6 815.20853333 409.6 608.04266667L409.6 153.60213333 409.6 153.60213333z" fill="#e7622a" p-id="12778"></path><path d="M781.78773333 136.53333333C616.576 136.53333333 512 230.39573333 512 354.46186667c0 106.84373333 80.53546667 173.73866667 197.63413333 216.88533333 84.69333333 30.20373333 118.1696 57.1904 118.1696 101.41653333 0 48.54613333-38.69653333 79.84-111.88906666 79.84-67.9744 0-129.6832-22.69866667-171.5072-45.344l0-0.0448L512 842.08426667c39.7632 22.6944 114.00746667 45.344 194.4896 45.344C899.9552 887.424 989.86666667 783.85066667 989.86666667 661.9392c0-103.57333333-57.5104-170.45333333-181.9264-217.94773333-92.02986667-36.67413333-130.70933333-57.16266667-130.70933334-103.55626667 0-36.69333333 33.46773333-70.12053333 102.49173334-70.12053333 67.93813333 0 114.65386667 22.8416 141.87733333 36.88746666l40.8-136.53333333C919.73333333 151.936 862.26773333 136.53333333 781.78773333 136.53333333L781.78773333 136.53333333z" fill="#e7622a" p-id="12779"></path></svg>